<svg width="100%" viewBox="0 0 690 530" role="img" style="" xmlns="http://www.w3.org/2000/svg">
<title style="fill:rgb(0, 0, 0);stroke:none;color:rgb(255, 255, 255);stroke-width:1px;stroke-linecap:butt;stroke-linejoin:miter;opacity:1;font-family:&quot;Anthropic Sans&quot;, -apple-system, BlinkMacSystemFont, &quot;Segoe UI&quot;, sans-serif;font-size:16px;font-weight:400;text-anchor:start;dominant-baseline:auto">Padrão de hexágonos conectados — identidade visual Alquimista Destilador</title>
<desc style="fill:rgb(0, 0, 0);stroke:none;color:rgb(255, 255, 255);stroke-width:1px;stroke-linecap:butt;stroke-linejoin:miter;opacity:1;font-family:&quot;Anthropic Sans&quot;, -apple-system, BlinkMacSystemFont, &quot;Segoe UI&quot;, sans-serif;font-size:16px;font-weight:400;text-anchor:start;dominant-baseline:auto">Estrutura de colmeia com hexágonos conectados em degradê de opacidade, sem círculos internos, sobre fundo escuro</desc>



<g transform="translate(340, 260)" style="fill:rgb(0, 0, 0);stroke:none;color:rgb(255, 255, 255);stroke-width:1px;stroke-linecap:butt;stroke-linejoin:miter;opacity:1;font-family:&quot;Anthropic Sans&quot;, -apple-system, BlinkMacSystemFont, &quot;Segoe UI&quot;, sans-serif;font-size:16px;font-weight:400;text-anchor:start;dominant-baseline:auto">

  <polygon points="0,-52 45,-26 45,26 0,52 -45,26 -45,-26" style="fill:none;stroke:rgb(96, 165, 250);color:rgb(255, 255, 255);stroke-width:1.5px;stroke-linecap:butt;stroke-linejoin:miter;opacity:1;font-family:&quot;Anthropic Sans&quot;, -apple-system, BlinkMacSystemFont, &quot;Segoe UI&quot;, sans-serif;font-size:16px;font-weight:400;text-anchor:start;dominant-baseline:auto"/>

  <polygon points="0,-52 45,-26 45,26 0,52 -45,26 -45,-26" transform="translate(90, 0)" style="fill:none;stroke:rgb(96, 165, 250);color:rgb(255, 255, 255);stroke-width:1.5px;stroke-linecap:butt;stroke-linejoin:miter;opacity:1;font-family:&quot;Anthropic Sans&quot;, -apple-system, BlinkMacSystemFont, &quot;Segoe UI&quot;, sans-serif;font-size:16px;font-weight:400;text-anchor:start;dominant-baseline:auto"/>
  <polygon points="0,-52 45,-26 45,26 0,52 -45,26 -45,-26" transform="translate(-90, 0)" style="fill:none;stroke:rgb(96, 165, 250);color:rgb(255, 255, 255);stroke-width:1.5px;stroke-linecap:butt;stroke-linejoin:miter;opacity:1;font-family:&quot;Anthropic Sans&quot;, -apple-system, BlinkMacSystemFont, &quot;Segoe UI&quot;, sans-serif;font-size:16px;font-weight:400;text-anchor:start;dominant-baseline:auto"/>
  <polygon points="0,-52 45,-26 45,26 0,52 -45,26 -45,-26" transform="translate(45, 78)" style="fill:none;stroke:rgb(96, 165, 250);color:rgb(255, 255, 255);stroke-width:1.5px;stroke-linecap:butt;stroke-linejoin:miter;opacity:1;font-family:&quot;Anthropic Sans&quot;, -apple-system, BlinkMacSystemFont, &quot;Segoe UI&quot;, sans-serif;font-size:16px;font-weight:400;text-anchor:start;dominant-baseline:auto"/>
  <polygon points="0,-52 45,-26 45,26 0,52 -45,26 -45,-26" transform="translate(-45, 78)" style="fill:none;stroke:rgb(96, 165, 250);color:rgb(255, 255, 255);stroke-width:1.5px;stroke-linecap:butt;stroke-linejoin:miter;opacity:1;font-family:&quot;Anthropic Sans&quot;, -apple-system, BlinkMacSystemFont, &quot;Segoe UI&quot;, sans-serif;font-size:16px;font-weight:400;text-anchor:start;dominant-baseline:auto"/>
  <polygon points="0,-52 45,-26 45,26 0,52 -45,26 -45,-26" transform="translate(45, -78)" style="fill:none;stroke:rgb(96, 165, 250);color:rgb(255, 255, 255);stroke-width:1.5px;stroke-linecap:butt;stroke-linejoin:miter;opacity:1;font-family:&quot;Anthropic Sans&quot;, -apple-system, BlinkMacSystemFont, &quot;Segoe UI&quot;, sans-serif;font-size:16px;font-weight:400;text-anchor:start;dominant-baseline:auto"/>
  <polygon points="0,-52 45,-26 45,26 0,52 -45,26 -45,-26" transform="translate(-45, -78)" style="fill:none;stroke:rgb(96, 165, 250);color:rgb(255, 255, 255);stroke-width:1.5px;stroke-linecap:butt;stroke-linejoin:miter;opacity:1;font-family:&quot;Anthropic Sans&quot;, -apple-system, BlinkMacSystemFont, &quot;Segoe UI&quot;, sans-serif;font-size:16px;font-weight:400;text-anchor:start;dominant-baseline:auto"/>

  <polygon points="0,-52 45,-26 45,26 0,52 -45,26 -45,-26" transform="translate(180, 0)" style="fill:none;stroke:rgb(96, 165, 250);color:rgb(255, 255, 255);stroke-width:1.5px;stroke-linecap:butt;stroke-linejoin:miter;opacity:0.5;font-family:&quot;Anthropic Sans&quot;, -apple-system, BlinkMacSystemFont, &quot;Segoe UI&quot;, sans-serif;font-size:16px;font-weight:400;text-anchor:start;dominant-baseline:auto"/>
  <polygon points="0,-52 45,-26 45,26 0,52 -45,26 -45,-26" transform="translate(-180, 0)" style="fill:none;stroke:rgb(96, 165, 250);color:rgb(255, 255, 255);stroke-width:1.5px;stroke-linecap:butt;stroke-linejoin:miter;opacity:0.5;font-family:&quot;Anthropic Sans&quot;, -apple-system, BlinkMacSystemFont, &quot;Segoe UI&quot;, sans-serif;font-size:16px;font-weight:400;text-anchor:start;dominant-baseline:auto"/>
  <polygon points="0,-52 45,-26 45,26 0,52 -45,26 -45,-26" transform="translate(135, 78)" style="fill:none;stroke:rgb(96, 165, 250);color:rgb(255, 255, 255);stroke-width:1.5px;stroke-linecap:butt;stroke-linejoin:miter;opacity:0.5;font-family:&quot;Anthropic Sans&quot;, -apple-system, BlinkMacSystemFont, &quot;Segoe UI&quot;, sans-serif;font-size:16px;font-weight:400;text-anchor:start;dominant-baseline:auto"/>
  <polygon points="0,-52 45,-26 45,26 0,52 -45,26 -45,-26" transform="translate(-135, 78)" style="fill:none;stroke:rgb(96, 165, 250);color:rgb(255, 255, 255);stroke-width:1.5px;stroke-linecap:butt;stroke-linejoin:miter;opacity:0.5;font-family:&quot;Anthropic Sans&quot;, -apple-system, BlinkMacSystemFont, &quot;Segoe UI&quot;, sans-serif;font-size:16px;font-weight:400;text-anchor:start;dominant-baseline:auto"/>
  <polygon points="0,-52 45,-26 45,26 0,52 -45,26 -45,-26" transform="translate(135, -78)" style="fill:none;stroke:rgb(96, 165, 250);color:rgb(255, 255, 255);stroke-width:1.5px;stroke-linecap:butt;stroke-linejoin:miter;opacity:0.5;font-family:&quot;Anthropic Sans&quot;, -apple-system, BlinkMacSystemFont, &quot;Segoe UI&quot;, sans-serif;font-size:16px;font-weight:400;text-anchor:start;dominant-baseline:auto"/>
  <polygon points="0,-52 45,-26 45,26 0,52 -45,26 -45,-26" transform="translate(-135, -78)" style="fill:none;stroke:rgb(96, 165, 250);color:rgb(255, 255, 255);stroke-width:1.5px;stroke-linecap:butt;stroke-linejoin:miter;opacity:0.5;font-family:&quot;Anthropic Sans&quot;, -apple-system, BlinkMacSystemFont, &quot;Segoe UI&quot;, sans-serif;font-size:16px;font-weight:400;text-anchor:start;dominant-baseline:auto"/>
  <polygon points="0,-52 45,-26 45,26 0,52 -45,26 -45,-26" transform="translate(90, 156)" style="fill:none;stroke:rgb(96, 165, 250);color:rgb(255, 255, 255);stroke-width:1.5px;stroke-linecap:butt;stroke-linejoin:miter;opacity:0.5;font-family:&quot;Anthropic Sans&quot;, -apple-system, BlinkMacSystemFont, &quot;Segoe UI&quot;, sans-serif;font-size:16px;font-weight:400;text-anchor:start;dominant-baseline:auto"/>
  <polygon points="0,-52 45,-26 45,26 0,52 -45,26 -45,-26" transform="translate(-90, 156)" style="fill:none;stroke:rgb(96, 165, 250);color:rgb(255, 255, 255);stroke-width:1.5px;stroke-linecap:butt;stroke-linejoin:miter;opacity:0.5;font-family:&quot;Anthropic Sans&quot;, -apple-system, BlinkMacSystemFont, &quot;Segoe UI&quot;, sans-serif;font-size:16px;font-weight:400;text-anchor:start;dominant-baseline:auto"/>
  <polygon points="0,-52 45,-26 45,26 0,52 -45,26 -45,-26" transform="translate(90, -156)" style="fill:none;stroke:rgb(96, 165, 250);color:rgb(255, 255, 255);stroke-width:1.5px;stroke-linecap:butt;stroke-linejoin:miter;opacity:0.5;font-family:&quot;Anthropic Sans&quot;, -apple-system, BlinkMacSystemFont, &quot;Segoe UI&quot;, sans-serif;font-size:16px;font-weight:400;text-anchor:start;dominant-baseline:auto"/>
  <polygon points="0,-52 45,-26 45,26 0,52 -45,26 -45,-26" transform="translate(-90, -156)" style="fill:none;stroke:rgb(96, 165, 250);color:rgb(255, 255, 255);stroke-width:1.5px;stroke-linecap:butt;stroke-linejoin:miter;opacity:0.5;font-family:&quot;Anthropic Sans&quot;, -apple-system, BlinkMacSystemFont, &quot;Segoe UI&quot;, sans-serif;font-size:16px;font-weight:400;text-anchor:start;dominant-baseline:auto"/>
  <polygon points="0,-52 45,-26 45,26 0,52 -45,26 -45,-26" transform="translate(0, 156)" style="fill:none;stroke:rgb(96, 165, 250);color:rgb(255, 255, 255);stroke-width:1.5px;stroke-linecap:butt;stroke-linejoin:miter;opacity:0.5;font-family:&quot;Anthropic Sans&quot;, -apple-system, BlinkMacSystemFont, &quot;Segoe UI&quot;, sans-serif;font-size:16px;font-weight:400;text-anchor:start;dominant-baseline:auto"/>
  <polygon points="0,-52 45,-26 45,26 0,52 -45,26 -45,-26" transform="translate(0, -156)" style="fill:none;stroke:rgb(96, 165, 250);color:rgb(255, 255, 255);stroke-width:1.5px;stroke-linecap:butt;stroke-linejoin:miter;opacity:0.5;font-family:&quot;Anthropic Sans&quot;, -apple-system, BlinkMacSystemFont, &quot;Segoe UI&quot;, sans-serif;font-size:16px;font-weight:400;text-anchor:start;dominant-baseline:auto"/>

  <polygon points="0,-52 45,-26 45,26 0,52 -45,26 -45,-26" transform="translate(270, 0)" style="fill:none;stroke:rgb(96, 165, 250);color:rgb(255, 255, 255);stroke-width:1.5px;stroke-linecap:butt;stroke-linejoin:miter;opacity:0.2;font-family:&quot;Anthropic Sans&quot;, -apple-system, BlinkMacSystemFont, &quot;Segoe UI&quot;, sans-serif;font-size:16px;font-weight:400;text-anchor:start;dominant-baseline:auto"/>
  <polygon points="0,-52 45,-26 45,26 0,52 -45,26 -45,-26" transform="translate(-270, 0)" style="fill:none;stroke:rgb(96, 165, 250);color:rgb(255, 255, 255);stroke-width:1.5px;stroke-linecap:butt;stroke-linejoin:miter;opacity:0.2;font-family:&quot;Anthropic Sans&quot;, -apple-system, BlinkMacSystemFont, &quot;Segoe UI&quot;, sans-serif;font-size:16px;font-weight:400;text-anchor:start;dominant-baseline:auto"/>
  <polygon points="0,-52 45,-26 45,26 0,52 -45,26 -45,-26" transform="translate(225, 78)" style="fill:none;stroke:rgb(96, 165, 250);color:rgb(255, 255, 255);stroke-width:1.5px;stroke-linecap:butt;stroke-linejoin:miter;opacity:0.2;font-family:&quot;Anthropic Sans&quot;, -apple-system, BlinkMacSystemFont, &quot;Segoe UI&quot;, sans-serif;font-size:16px;font-weight:400;text-anchor:start;dominant-baseline:auto"/>
  <polygon points="0,-52 45,-26 45,26 0,52 -45,26 -45,-26" transform="translate(-225, 78)" style="fill:none;stroke:rgb(96, 165, 250);color:rgb(255, 255, 255);stroke-width:1.5px;stroke-linecap:butt;stroke-linejoin:miter;opacity:0.2;font-family:&quot;Anthropic Sans&quot;, -apple-system, BlinkMacSystemFont, &quot;Segoe UI&quot;, sans-serif;font-size:16px;font-weight:400;text-anchor:start;dominant-baseline:auto"/>
  <polygon points="0,-52 45,-26 45,26 0,52 -45,26 -45,-26" transform="translate(225, -78)" style="fill:none;stroke:rgb(96, 165, 250);color:rgb(255, 255, 255);stroke-width:1.5px;stroke-linecap:butt;stroke-linejoin:miter;opacity:0.2;font-family:&quot;Anthropic Sans&quot;, -apple-system, BlinkMacSystemFont, &quot;Segoe UI&quot;, sans-serif;font-size:16px;font-weight:400;text-anchor:start;dominant-baseline:auto"/>
  <polygon points="0,-52 45,-26 45,26 0,52 -45,26 -45,-26" transform="translate(-225, -78)" style="fill:none;stroke:rgb(96, 165, 250);color:rgb(255, 255, 255);stroke-width:1.5px;stroke-linecap:butt;stroke-linejoin:miter;opacity:0.2;font-family:&quot;Anthropic Sans&quot;, -apple-system, BlinkMacSystemFont, &quot;Segoe UI&quot;, sans-serif;font-size:16px;font-weight:400;text-anchor:start;dominant-baseline:auto"/>
  <polygon points="0,-52 45,-26 45,26 0,52 -45,26 -45,-26" transform="translate(180, 156)" style="fill:none;stroke:rgb(96, 165, 250);color:rgb(255, 255, 255);stroke-width:1.5px;stroke-linecap:butt;stroke-linejoin:miter;opacity:0.2;font-family:&quot;Anthropic Sans&quot;, -apple-system, BlinkMacSystemFont, &quot;Segoe UI&quot;, sans-serif;font-size:16px;font-weight:400;text-anchor:start;dominant-baseline:auto"/>
  <polygon points="0,-52 45,-26 45,26 0,52 -45,26 -45,-26" transform="translate(-180, 156)" style="fill:none;stroke:rgb(96, 165, 250);color:rgb(255, 255, 255);stroke-width:1.5px;stroke-linecap:butt;stroke-linejoin:miter;opacity:0.2;font-family:&quot;Anthropic Sans&quot;, -apple-system, BlinkMacSystemFont, &quot;Segoe UI&quot;, sans-serif;font-size:16px;font-weight:400;text-anchor:start;dominant-baseline:auto"/>
  <polygon points="0,-52 45,-26 45,26 0,52 -45,26 -45,-26" transform="translate(180, -156)" style="fill:none;stroke:rgb(96, 165, 250);color:rgb(255, 255, 255);stroke-width:1.5px;stroke-linecap:butt;stroke-linejoin:miter;opacity:0.2;font-family:&quot;Anthropic Sans&quot;, -apple-system, BlinkMacSystemFont, &quot;Segoe UI&quot;, sans-serif;font-size:16px;font-weight:400;text-anchor:start;dominant-baseline:auto"/>
  <polygon points="0,-52 45,-26 45,26 0,52 -45,26 -45,-26" transform="translate(-180, -156)" style="fill:none;stroke:rgb(96, 165, 250);color:rgb(255, 255, 255);stroke-width:1.5px;stroke-linecap:butt;stroke-linejoin:miter;opacity:0.2;font-family:&quot;Anthropic Sans&quot;, -apple-system, BlinkMacSystemFont, &quot;Segoe UI&quot;, sans-serif;font-size:16px;font-weight:400;text-anchor:start;dominant-baseline:auto"/>
  <polygon points="0,-52 45,-26 45,26 0,52 -45,26 -45,-26" transform="translate(135, 234)" style="fill:none;stroke:rgb(96, 165, 250);color:rgb(255, 255, 255);stroke-width:1.5px;stroke-linecap:butt;stroke-linejoin:miter;opacity:0.2;font-family:&quot;Anthropic Sans&quot;, -apple-system, BlinkMacSystemFont, &quot;Segoe UI&quot;, sans-serif;font-size:16px;font-weight:400;text-anchor:start;dominant-baseline:auto"/>
  <polygon points="0,-52 45,-26 45,26 0,52 -45,26 -45,-26" transform="translate(-135, 234)" style="fill:none;stroke:rgb(96, 165, 250);color:rgb(255, 255, 255);stroke-width:1.5px;stroke-linecap:butt;stroke-linejoin:miter;opacity:0.2;font-family:&quot;Anthropic Sans&quot;, -apple-system, BlinkMacSystemFont, &quot;Segoe UI&quot;, sans-serif;font-size:16px;font-weight:400;text-anchor:start;dominant-baseline:auto"/>
  <polygon points="0,-52 45,-26 45,26 0,52 -45,26 -45,-26" transform="translate(135, -234)" style="fill:none;stroke:rgb(96, 165, 250);color:rgb(255, 255, 255);stroke-width:1.5px;stroke-linecap:butt;stroke-linejoin:miter;opacity:0.2;font-family:&quot;Anthropic Sans&quot;, -apple-system, BlinkMacSystemFont, &quot;Segoe UI&quot;, sans-serif;font-size:16px;font-weight:400;text-anchor:start;dominant-baseline:auto"/>
  <polygon points="0,-52 45,-26 45,26 0,52 -45,26 -45,-26" transform="translate(-135, -234)" style="fill:none;stroke:rgb(96, 165, 250);color:rgb(255, 255, 255);stroke-width:1.5px;stroke-linecap:butt;stroke-linejoin:miter;opacity:0.2;font-family:&quot;Anthropic Sans&quot;, -apple-system, BlinkMacSystemFont, &quot;Segoe UI&quot;, sans-serif;font-size:16px;font-weight:400;text-anchor:start;dominant-baseline:auto"/>
  <polygon points="0,-52 45,-26 45,26 0,52 -45,26 -45,-26" transform="translate(45, 234)" style="fill:none;stroke:rgb(96, 165, 250);color:rgb(255, 255, 255);stroke-width:1.5px;stroke-linecap:butt;stroke-linejoin:miter;opacity:0.2;font-family:&quot;Anthropic Sans&quot;, -apple-system, BlinkMacSystemFont, &quot;Segoe UI&quot;, sans-serif;font-size:16px;font-weight:400;text-anchor:start;dominant-baseline:auto"/>
  <polygon points="0,-52 45,-26 45,26 0,52 -45,26 -45,-26" transform="translate(-45, 234)" style="fill:none;stroke:rgb(96, 165, 250);color:rgb(255, 255, 255);stroke-width:1.5px;stroke-linecap:butt;stroke-linejoin:miter;opacity:0.2;font-family:&quot;Anthropic Sans&quot;, -apple-system, BlinkMacSystemFont, &quot;Segoe UI&quot;, sans-serif;font-size:16px;font-weight:400;text-anchor:start;dominant-baseline:auto"/>
  <polygon points="0,-52 45,-26 45,26 0,52 -45,26 -45,-26" transform="translate(45, -234)" style="fill:none;stroke:rgb(96, 165, 250);color:rgb(255, 255, 255);stroke-width:1.5px;stroke-linecap:butt;stroke-linejoin:miter;opacity:0.2;font-family:&quot;Anthropic Sans&quot;, -apple-system, BlinkMacSystemFont, &quot;Segoe UI&quot;, sans-serif;font-size:16px;font-weight:400;text-anchor:start;dominant-baseline:auto"/>
  <polygon points="0,-52 45,-26 45,26 0,52 -45,26 -45,-26" transform="translate(-45, -234)" style="fill:none;stroke:rgb(96, 165, 250);color:rgb(255, 255, 255);stroke-width:1.5px;stroke-linecap:butt;stroke-linejoin:miter;opacity:0.2;font-family:&quot;Anthropic Sans&quot;, -apple-system, BlinkMacSystemFont, &quot;Segoe UI&quot;, sans-serif;font-size:16px;font-weight:400;text-anchor:start;dominant-baseline:auto"/>

  <polygon points="0,-52 45,-26 45,26 0,52 -45,26 -45,-26" transform="translate(315, 78)" style="fill:none;stroke:rgb(96, 165, 250);color:rgb(255, 255, 255);stroke-width:1.5px;stroke-linecap:butt;stroke-linejoin:miter;opacity:0.08;font-family:&quot;Anthropic Sans&quot;, -apple-system, BlinkMacSystemFont, &quot;Segoe UI&quot;, sans-serif;font-size:16px;font-weight:400;text-anchor:start;dominant-baseline:auto"/>
  <polygon points="0,-52 45,-26 45,26 0,52 -45,26 -45,-26" transform="translate(-315, 78)" style="fill:none;stroke:rgb(96, 165, 250);color:rgb(255, 255, 255);stroke-width:1.5px;stroke-linecap:butt;stroke-linejoin:miter;opacity:0.08;font-family:&quot;Anthropic Sans&quot;, -apple-system, BlinkMacSystemFont, &quot;Segoe UI&quot;, sans-serif;font-size:16px;font-weight:400;text-anchor:start;dominant-baseline:auto"/>
  <polygon points="0,-52 45,-26 45,26 0,52 -45,26 -45,-26" transform="translate(270, 156)" style="fill:none;stroke:rgb(96, 165, 250);color:rgb(255, 255, 255);stroke-width:1.5px;stroke-linecap:butt;stroke-linejoin:miter;opacity:0.08;font-family:&quot;Anthropic Sans&quot;, -apple-system, BlinkMacSystemFont, &quot;Segoe UI&quot;, sans-serif;font-size:16px;font-weight:400;text-anchor:start;dominant-baseline:auto"/>
  <polygon points="0,-52 45,-26 45,26 0,52 -45,26 -45,-26" transform="translate(-270, 156)" style="fill:none;stroke:rgb(96, 165, 250);color:rgb(255, 255, 255);stroke-width:1.5px;stroke-linecap:butt;stroke-linejoin:miter;opacity:0.08;font-family:&quot;Anthropic Sans&quot;, -apple-system, BlinkMacSystemFont, &quot;Segoe UI&quot;, sans-serif;font-size:16px;font-weight:400;text-anchor:start;dominant-baseline:auto"/>
  <polygon points="0,-52 45,-26 45,26 0,52 -45,26 -45,-26" transform="translate(270, -156)" style="fill:none;stroke:rgb(96, 165, 250);color:rgb(255, 255, 255);stroke-width:1.5px;stroke-linecap:butt;stroke-linejoin:miter;opacity:0.08;font-family:&quot;Anthropic Sans&quot;, -apple-system, BlinkMacSystemFont, &quot;Segoe UI&quot;, sans-serif;font-size:16px;font-weight:400;text-anchor:start;dominant-baseline:auto"/>
  <polygon points="0,-52 45,-26 45,26 0,52 -45,26 -45,-26" transform="translate(-270, -156)" style="fill:none;stroke:rgb(96, 165, 250);color:rgb(255, 255, 255);stroke-width:1.5px;stroke-linecap:butt;stroke-linejoin:miter;opacity:0.08;font-family:&quot;Anthropic Sans&quot;, -apple-system, BlinkMacSystemFont, &quot;Segoe UI&quot;, sans-serif;font-size:16px;font-weight:400;text-anchor:start;dominant-baseline:auto"/>
  <polygon points="0,-52 45,-26 45,26 0,52 -45,26 -45,-26" transform="translate(225, 234)" style="fill:none;stroke:rgb(96, 165, 250);color:rgb(255, 255, 255);stroke-width:1.5px;stroke-linecap:butt;stroke-linejoin:miter;opacity:0.08;font-family:&quot;Anthropic Sans&quot;, -apple-system, BlinkMacSystemFont, &quot;Segoe UI&quot;, sans-serif;font-size:16px;font-weight:400;text-anchor:start;dominant-baseline:auto"/>
  <polygon points="0,-52 45,-26 45,26 0,52 -45,26 -45,-26" transform="translate(-225, 234)" style="fill:none;stroke:rgb(96, 165, 250);color:rgb(255, 255, 255);stroke-width:1.5px;stroke-linecap:butt;stroke-linejoin:miter;opacity:0.08;font-family:&quot;Anthropic Sans&quot;, -apple-system, BlinkMacSystemFont, &quot;Segoe UI&quot;, sans-serif;font-size:16px;font-weight:400;text-anchor:start;dominant-baseline:auto"/>
  <polygon points="0,-52 45,-26 45,26 0,52 -45,26 -45,-26" transform="translate(225, -234)" style="fill:none;stroke:rgb(96, 165, 250);color:rgb(255, 255, 255);stroke-width:1.5px;stroke-linecap:butt;stroke-linejoin:miter;opacity:0.08;font-family:&quot;Anthropic Sans&quot;, -apple-system, BlinkMacSystemFont, &quot;Segoe UI&quot;, sans-serif;font-size:16px;font-weight:400;text-anchor:start;dominant-baseline:auto"/>
  <polygon points="0,-52 45,-26 45,26 0,52 -45,26 -45,-26" transform="translate(-225, -234)" style="fill:none;stroke:rgb(96, 165, 250);color:rgb(255, 255, 255);stroke-width:1.5px;stroke-linecap:butt;stroke-linejoin:miter;opacity:0.08;font-family:&quot;Anthropic Sans&quot;, -apple-system, BlinkMacSystemFont, &quot;Segoe UI&quot;, sans-serif;font-size:16px;font-weight:400;text-anchor:start;dominant-baseline:auto"/>
</g>
</svg>